<?xml version="1.0" standalone="no"?>
<!DOCTYPE svg PUBLIC "-//W3C//DTD SVG 20010904//EN"
 "http://www.w3.org/TR/2001/REC-SVG-20010904/DTD/svg10.dtd">
<svg version="1.0" xmlns="http://www.w3.org/2000/svg"
 width="5928.000000pt" height="3984.000000pt" viewBox="0 0 5928.000000 3984.000000"
 preserveAspectRatio="xMidYMid meet">

<g transform="translate(0.000000,3984.000000) scale(0.100000,-0.100000)"
fill="#000000" stroke="none">
<path d="M30440 39229 c-113 -4 -250 -10 -305 -13 -55 -3 -143 -9 -195 -12
-80 -4 -228 -16 -520 -40 -30 -2 -71 -6 -90 -9 -19 -3 -64 -7 -100 -10 -79 -7
-306 -33 -340 -40 -14 -2 -47 -6 -75 -9 -83 -8 -282 -36 -415 -57 -69 -11
-168 -26 -220 -34 -52 -9 -131 -22 -175 -30 -44 -8 -93 -17 -110 -20 -240 -43
-498 -93 -565 -110 -31 -8 -73 -17 -95 -20 -22 -4 -85 -18 -140 -31 -55 -14
-112 -27 -127 -29 -15 -3 -65 -14 -110 -26 -46 -11 -92 -22 -103 -24 -17 -4
-79 -20 -315 -80 -8 -2 -42 -11 -75 -20 -33 -9 -69 -18 -79 -20 -10 -3 -34 -9
-52 -15 -18 -6 -43 -13 -56 -15 -13 -3 -70 -18 -128 -35 -58 -17 -112 -32
-121 -34 -8 -2 -40 -12 -70 -21 -30 -9 -78 -23 -107 -31 -63 -17 -319 -120
-697 -281 -353 -151 -533 -230 -818 -362 -49 -23 -90 -41 -92 -41 -4 0 -260
-122 -490 -233 -702 -339 -1503 -778 -2067 -1133 -243 -153 -329 -209 -478
-308 -203 -135 -491 -337 -668 -468 -73 -54 -136 -98 -140 -98 -5 0 -51 48
-103 107 -293 335 -686 683 -1029 913 -332 223 -714 406 -1050 504 -30 9 -84
25 -120 35 -86 25 -212 50 -379 76 -307 47 -708 43 -1026 -12 -49 -8 -103 -17
-120 -20 -88 -14 -376 -91 -510 -136 -904 -309 -1816 -950 -2726 -1913 -168
-179 -219 -240 -382 -467 -1551 -2161 -2202 -3002 -3032 -3917 -200 -221 -782
-803 -980 -981 -780 -701 -1534 -1233 -2415 -1706 -108 -59 -538 -272 -650
-323 -134 -62 -558 -277 -660 -335 -745 -427 -1314 -854 -1879 -1410 -122
-121 -275 -277 -338 -347 -540 -597 -1010 -1301 -1313 -1968 -28 -63 -63 -139
-76 -168 -13 -29 -24 -55 -24 -58 0 -3 -11 -29 -24 -57 -22 -48 -55 -134 -129
-332 -72 -194 -215 -679 -241 -819 -2 -11 -11 -48 -19 -81 -9 -33 -18 -77 -21
-99 -4 -21 -8 -41 -10 -45 -2 -3 -7 -28 -10 -55 -4 -27 -9 -52 -11 -56 -4 -6
-40 -211 -49 -280 -9 -65 -27 -205 -31 -245 -3 -22 -7 -51 -10 -65 -2 -14 -7
-63 -10 -110 -4 -47 -8 -101 -10 -120 -20 -187 -28 -880 -12 -1160 10 -171 34
-431 52 -555 2 -16 7 -57 10 -90 16 -150 89 -574 131 -760 2 -11 7 -33 10 -50
10 -56 55 -250 70 -305 9 -30 18 -66 21 -80 12 -72 125 -462 215 -744 15 -46
48 -71 83 -62 35 9 41 31 49 173 4 67 8 130 10 140 2 10 7 45 10 78 9 74 50
263 81 370 81 281 249 628 423 876 l50 69 6 -222 c7 -257 4 -219 22 -378 23
-206 21 -196 59 -415 70 -403 230 -903 421 -1315 426 -919 1102 -1731 1999
-2402 319 -238 610 -424 1020 -650 105 -58 278 -154 385 -213 281 -156 705
-396 848 -482 68 -40 125 -73 127 -73 2 0 75 -43 162 -96 1034 -630 1605
-1046 2069 -1509 408 -407 644 -764 789 -1195 34 -100 72 -250 81 -315 2 -16
6 -46 10 -65 12 -61 13 -81 21 -290 7 -190 5 -294 -12 -445 -12 -104 -14 -119
-20 -160 -9 -60 -12 -73 -29 -155 -8 -41 -17 -86 -20 -100 -8 -50 -67 -271
-100 -382 -59 -195 -59 -197 -41 -224 20 -31 49 -31 145 1 41 13 122 40 180
59 115 37 323 111 355 125 11 5 81 33 155 62 823 320 1715 831 2475 1417 395
305 655 533 1034 906 563 557 1003 1088 1434 1733 156 233 365 571 459 743 20
36 55 99 78 140 81 145 350 697 424 870 79 187 189 463 226 570 12 36 28 79
35 95 11 25 144 433 164 503 5 19 20 -6 76 -130 61 -135 148 -321 235 -503
129 -269 314 -654 393 -815 52 -107 116 -240 142 -295 136 -286 155 -326 155
-329 0 -2 24 -55 54 -117 30 -63 68 -148 86 -189 18 -41 40 -93 50 -115 10
-22 55 -130 100 -240 45 -110 86 -209 91 -220 35 -86 160 -443 160 -460 0 -2
7 -24 15 -47 14 -38 58 -185 68 -228 2 -8 16 -60 30 -115 22 -87 88 -383 102
-455 2 -14 7 -32 10 -40 3 -8 8 -26 10 -40 13 -67 128 -440 158 -515 7 -16 32
-79 56 -140 23 -60 82 -191 130 -290 421 -863 1111 -1536 2160 -2105 413 -224
1066 -512 1530 -676 52 -18 133 -47 180 -65 98 -36 600 -203 740 -247 241 -75
299 -93 316 -97 152 -35 869 -261 1179 -372 690 -246 1428 -571 2074 -915 145
-77 317 -172 399 -220 45 -26 84 -48 86 -48 9 0 543 -325 701 -426 955 -611
1693 -1179 3055 -2349 391 -335 513 -431 750 -589 96 -64 184 -122 195 -130
11 -7 89 -53 174 -101 430 -244 936 -457 1406 -590 33 -9 71 -21 85 -26 32
-11 344 -87 390 -94 19 -3 51 -10 70 -15 19 -5 51 -11 71 -14 20 -3 42 -7 50
-10 8 -3 32 -7 54 -10 22 -3 51 -8 65 -11 47 -10 285 -43 360 -50 41 -3 91 -8
110 -11 68 -8 236 -22 320 -25 238 -10 710 -1 880 16 149 15 333 37 380 45 30
5 73 12 95 15 64 10 244 44 315 61 36 9 76 18 90 20 130 24 667 187 782 237
47 21 202 84 278 115 107 42 498 243 608 312 191 120 350 247 523 420 301 299
508 599 690 1003 80 178 204 529 234 667 2 8 13 49 24 90 19 71 51 217 56 250
1 8 7 40 13 70 12 59 15 75 36 220 14 89 18 125 31 240 9 80 20 224 30 375 6
94 7 743 1 753 -2 4 -7 63 -10 132 -6 107 -21 268 -42 427 -4 37 -2 43 14 43
25 0 255 45 361 71 47 12 97 23 111 25 14 3 39 9 55 14 17 5 107 30 200 56
633 175 1329 477 1930 837 942 564 1745 1314 2343 2191 l81 119 83 35 c503
216 950 647 1288 1242 36 63 210 416 210 425 0 3 9 25 19 48 64 140 183 486
241 702 57 208 125 515 154 695 23 139 46 293 51 337 2 29 7 65 9 80 8 49 35
323 48 493 14 189 17 1030 5 1305 -4 99 -15 254 -23 345 -7 91 -16 194 -19
230 -5 58 -16 164 -30 285 -3 22 -11 92 -20 155 -8 63 -17 135 -20 160 -3 25
-10 74 -16 110 -6 36 -12 78 -14 93 -15 110 -51 329 -65 397 -11 53 -29 152
-36 195 -4 25 -22 116 -40 200 -2 11 -15 76 -30 145 -14 69 -30 143 -36 165
-5 22 -12 51 -15 65 -2 14 -9 43 -14 65 -5 22 -12 51 -15 65 -15 70 -156 618
-164 640 -6 14 -13 36 -15 50 -3 14 -14 57 -26 95 -11 39 -31 108 -44 155 -45
161 -252 806 -274 855 -5 11 -19 49 -31 85 -27 82 -148 415 -165 455 -7 17
-19 48 -28 70 -8 22 -32 83 -53 135 -174 446 -290 799 -403 1225 -39 150 -109
454 -127 555 -4 25 -12 63 -33 170 -18 88 -76 452 -87 540 -4 35 -10 75 -18
117 -3 12 -7 54 -11 95 -3 40 -8 80 -10 88 -2 8 -7 44 -10 80 -3 36 -10 101
-15 145 -5 44 -12 105 -15 135 -12 129 -25 269 -30 325 -12 155 -16 204 -20
255 -3 30 -8 91 -10 135 -3 44 -7 114 -10 155 -3 41 -9 158 -15 260 -6 102
-12 210 -15 240 -2 30 -7 114 -10 185 -3 72 -8 155 -10 185 -2 30 -7 116 -10
190 -3 74 -8 155 -11 180 -3 24 -3 42 -1 40 9 -9 223 -568 284 -740 18 -52 36
-102 40 -110 35 -87 260 -759 332 -995 67 -222 112 -371 116 -385 2 -8 17 -64
35 -125 47 -164 136 -497 185 -695 46 -184 58 -237 106 -440 16 -69 31 -132
33 -140 2 -8 11 -51 21 -95 40 -199 77 -368 100 -460 49 -201 77 -311 86 -340
5 -16 27 -93 50 -170 278 -950 748 -1887 1337 -2670 257 -340 463 -577 777
-891 587 -587 1184 -1037 1910 -1439 124 -69 462 -240 570 -288 127 -57 339
-147 347 -147 4 0 27 -9 51 -19 119 -55 703 -256 801 -275 6 -2 31 -8 56 -15
25 -7 52 -15 60 -17 8 -2 86 -21 173 -43 87 -22 170 -42 185 -45 15 -3 81 -16
147 -30 66 -14 134 -27 150 -29 17 -3 100 -17 185 -31 85 -13 182 -28 215 -31
33 -3 87 -10 120 -15 33 -5 94 -11 135 -14 41 -4 134 -11 205 -17 212 -19
1053 -14 1085 6 3 2 43 6 88 9 46 4 118 11 160 17 42 5 100 13 127 16 63 7 83
17 91 48 11 46 -4 62 -114 116 -441 219 -810 555 -1089 989 -139 217 -246 436
-337 685 -33 92 -92 290 -101 340 -4 22 -11 47 -16 56 -7 14 4 20 69 38 42 12
85 24 95 26 10 2 32 9 50 15 18 5 93 30 167 54 519 169 975 410 1313 696 83
69 103 91 105 116 4 39 -24 65 -75 69 -72 7 -138 17 -173 25 -19 5 -44 11 -55
13 -147 27 -354 143 -481 271 -164 165 -300 437 -350 701 -4 22 -9 47 -10 55
-2 8 -11 76 -19 150 -17 141 -19 482 -4 596 4 33 10 86 14 119 7 71 11 97 19
148 3 20 9 53 12 73 7 45 7 47 34 164 59 265 141 541 220 740 17 41 30 78 30
82 0 4 11 31 24 60 13 29 45 103 71 163 69 161 147 318 256 516 107 194 236
448 293 579 21 47 45 100 53 119 86 192 277 732 272 771 -1 3 6 23 15 45 13
34 75 279 90 355 2 14 9 45 14 70 6 25 13 62 16 82 3 21 10 57 15 80 5 24 12
66 15 93 3 28 8 61 10 75 3 14 7 43 10 65 6 53 16 142 21 180 24 184 29 592
10 788 -4 46 -3 57 7 51 49 -29 198 -122 223 -139 336 -228 785 -678 1138
-1139 60 -77 128 -167 153 -198 49 -65 85 -76 120 -37 18 20 19 43 19 483 0
404 -7 688 -20 821 -2 22 -7 85 -10 140 -4 55 -9 108 -11 118 -1 10 -6 50 -9
90 -6 68 -28 260 -39 337 -3 19 -8 58 -12 85 -8 67 -52 327 -69 415 -3 14 -8
39 -10 55 -7 37 -30 144 -56 255 -11 47 -22 96 -25 110 -31 154 -195 701 -243
815 -5 11 -32 83 -61 160 -29 77 -61 158 -70 180 -214 486 -342 724 -581 1082
-733 1099 -1792 1864 -3005 2171 -150 38 -224 54 -304 67 -19 3 -42 8 -50 10
-8 2 -31 7 -50 9 -48 6 -189 26 -220 31 -33 5 -208 23 -290 30 -75 6 -182 19
-330 41 -58 8 -116 17 -130 18 -14 2 -41 7 -60 10 -19 3 -48 8 -65 11 -28 4
-116 20 -175 31 -14 2 -41 7 -60 10 -19 4 -39 7 -45 8 -59 13 -191 42 -280 63
-60 14 -117 27 -125 28 -116 25 -487 134 -670 197 -80 28 -163 56 -185 63 -74
24 -469 184 -605 245 -128 58 -470 227 -555 275 -22 12 -65 36 -95 52 -105 56
-385 227 -525 319 -530 348 -978 716 -1450 1188 -261 261 -416 432 -639 699
-320 387 -510 639 -1126 1502 -671 938 -1001 1353 -1405 1764 -344 350 -637
588 -963 783 -129 78 -342 187 -442 228 -30 12 -73 30 -95 40 -129 56 -473
153 -661 185 -93 15 -108 17 -264 36 -161 20 -767 14 -801 -7 -4 -2 -27 -6
-51 -8 -87 -9 -146 -18 -258 -42 -63 -14 -126 -27 -140 -30 -14 -3 -34 -8 -45
-11 -11 -4 -25 -8 -32 -9 -32 -6 -210 -61 -305 -95 -695 -248 -1385 -732
-1923 -1351 l-41 -46 -54 32 c-30 18 -100 56 -155 85 -55 30 -122 66 -150 81
-27 15 -138 72 -245 127 -201 103 -310 154 -679 324 -36 17 -123 55 -195 85
-72 30 -156 66 -186 79 -30 13 -109 44 -175 70 -66 25 -131 51 -145 57 -148
63 -666 243 -925 323 -49 15 -115 35 -145 45 -30 10 -73 23 -95 29 -22 6 -85
24 -140 40 -128 38 -273 78 -305 85 -14 2 -105 25 -203 50 -157 40 -489 118
-557 130 -14 2 -56 11 -95 19 -38 9 -83 18 -100 20 -16 3 -52 10 -80 16 -27 6
-61 13 -75 15 -14 2 -77 13 -140 25 -63 11 -128 23 -145 26 -54 9 -209 34
-255 40 -25 3 -52 8 -60 10 -8 2 -40 6 -71 10 -31 3 -67 8 -80 10 -37 8 -326
44 -399 50 -36 3 -74 8 -85 10 -18 4 -94 11 -203 20 -24 2 -69 6 -100 9 -32 3
-91 8 -132 11 -41 3 -102 7 -135 10 -543 41 -1201 54 -1755 34z m1430 -133
c481 -28 874 -64 1218 -111 40 -5 105 -14 152 -20 93 -12 388 -58 490 -76 63
-12 129 -23 145 -26 17 -2 120 -22 230 -44 110 -22 211 -42 225 -45 147 -26
837 -197 1030 -254 36 -11 106 -31 155 -46 404 -118 1080 -354 1395 -487 301
-127 361 -152 415 -177 33 -15 94 -42 135 -60 106 -46 755 -366 875 -432 55
-30 132 -72 170 -93 803 -437 1741 -1089 2310 -1606 359 -326 988 -956 1356
-1359 809 -886 1456 -1763 1997 -2709 102 -179 377 -715 456 -891 252 -557
443 -1079 597 -1635 6 -22 15 -51 20 -65 8 -25 48 -178 55 -214 2 -10 8 -33
13 -50 6 -17 12 -42 15 -56 2 -14 11 -53 20 -88 9 -34 21 -82 25 -105 5 -23
18 -85 30 -137 11 -52 22 -106 25 -120 2 -14 9 -45 14 -70 6 -25 13 -63 17
-85 6 -44 12 -77 20 -115 14 -70 73 -424 79 -480 2 -19 7 -51 10 -70 5 -35 16
-113 22 -160 1 -14 7 -59 13 -100 6 -41 13 -104 16 -140 4 -35 8 -67 10 -70 1
-3 6 -44 9 -92 4 -47 8 -94 10 -105 5 -26 15 -126 21 -208 3 -38 7 -81 10 -95
2 -14 7 -65 10 -115 3 -49 8 -110 10 -135 11 -116 38 -527 50 -750 2 -47 7
-119 10 -160 5 -68 16 -284 30 -560 6 -117 13 -236 20 -355 3 -44 7 -123 10
-175 8 -137 29 -447 40 -570 28 -331 50 -550 70 -730 29 -246 35 -296 40 -327
6 -38 25 -167 29 -203 3 -19 14 -91 26 -160 11 -69 23 -140 26 -159 3 -18 8
-43 10 -55 4 -19 27 -137 38 -196 24 -127 127 -570 151 -650 8 -25 37 -126 65
-225 53 -183 124 -404 187 -575 39 -108 178 -469 198 -515 7 -16 25 -64 39
-105 15 -41 32 -86 38 -100 57 -136 349 -1012 391 -1175 3 -11 17 -58 32 -105
14 -47 37 -125 50 -175 13 -49 32 -117 41 -150 9 -33 18 -67 19 -75 2 -8 17
-64 33 -125 27 -102 64 -252 126 -515 28 -119 113 -535 121 -595 4 -22 8 -47
10 -55 4 -13 48 -264 61 -345 2 -16 6 -41 9 -55 3 -14 7 -47 10 -75 4 -27 8
-57 10 -65 3 -8 7 -35 10 -60 9 -77 14 -114 20 -150 3 -19 7 -48 9 -65 2 -16
7 -50 10 -75 3 -25 8 -65 11 -90 20 -189 25 -232 29 -285 3 -33 10 -109 16
-170 11 -125 14 -176 30 -472 11 -209 8 -1024 -4 -1168 -4 -38 -11 -131 -17
-205 -5 -74 -12 -146 -14 -160 -2 -14 -7 -52 -11 -85 -3 -33 -7 -71 -9 -85 -2
-14 -6 -49 -9 -78 -3 -29 -8 -65 -11 -81 -2 -15 -7 -43 -9 -62 -23 -176 -75
-448 -120 -639 -9 -36 -19 -78 -22 -95 -3 -16 -12 -48 -19 -70 -7 -22 -16 -53
-19 -70 -12 -55 -103 -339 -154 -480 -29 -79 -70 -181 -98 -242 -8 -17 -14
-34 -14 -37 0 -3 -29 -65 -64 -138 -267 -559 -612 -984 -1026 -1264 -102 -69
-250 -151 -250 -139 0 3 25 55 55 115 45 90 92 196 184 415 64 152 182 531
217 695 3 14 10 43 16 65 12 46 11 41 43 210 13 72 29 162 35 200 6 39 13 81
15 95 3 14 7 56 10 95 4 38 8 76 11 84 3 8 7 55 10 105 3 50 7 102 10 116 9
50 12 648 4 765 -15 202 -32 374 -50 495 -5 36 -12 81 -14 101 -9 62 -88 451
-99 484 -3 11 -8 31 -11 45 -12 63 -102 362 -150 498 -28 76 -118 306 -140
357 -8 17 -24 53 -36 80 -211 474 -551 994 -964 1475 -537 624 -1146 1163
-2362 2090 -904 688 -1331 1025 -1734 1371 -206 177 -432 380 -427 386 3 2 26
-1 53 -8 27 -6 58 -12 69 -14 11 -1 45 -7 75 -11 68 -10 576 -12 685 -2 72 7
179 21 350 47 219 34 612 140 880 239 285 105 592 257 844 419 225 145 544
410 582 484 11 23 19 54 17 72 -4 41 -22 39 -103 -13 -199 -127 -423 -265
-505 -312 -157 -90 -210 -120 -210 -115 0 2 43 42 96 88 245 213 463 518 589
824 35 84 113 302 120 335 2 8 15 63 29 123 23 93 52 254 71 392 25 184 33
676 15 925 -27 374 -83 757 -150 1030 -17 69 -33 133 -35 142 -13 56 -125 372
-168 473 -207 487 -491 910 -862 1280 -519 520 -1118 848 -1770 970 -49 10
-97 18 -105 20 -8 1 -80 8 -159 15 -180 16 -450 8 -629 -19 -1073 -162 -1965
-964 -2362 -2126 -78 -227 -154 -550 -176 -745 -2 -19 -7 -55 -10 -80 l-7 -45
-29 100 c-32 110 -153 583 -162 630 -3 17 -18 93 -35 170 -16 77 -32 157 -35
178 -4 22 -10 58 -16 80 -13 60 -49 269 -55 322 -1 6 -4 24 -8 40 -3 17 -9 53
-12 80 -3 28 -8 61 -10 75 -2 14 -7 44 -10 68 -3 24 -7 53 -10 65 -2 12 -7 49
-11 82 -9 89 -11 108 -28 250 -8 72 -17 168 -21 215 -3 47 -7 99 -10 115 -2
17 -7 71 -10 120 -28 463 -36 601 -46 875 -9 244 -8 1425 1 1550 1 8 5 98 11
200 14 269 18 338 24 400 3 30 7 87 10 125 3 39 8 99 11 135 6 79 43 433 49
475 2 17 7 57 11 90 4 33 8 67 9 75 1 8 5 40 9 70 4 30 12 84 17 120 6 36 13
83 15 105 8 66 72 441 99 580 15 72 28 144 31 160 3 17 23 109 45 205 22 96
42 185 45 197 2 12 20 84 40 160 19 76 37 145 38 153 3 13 21 77 32 115 4 13
18 66 38 140 29 107 125 405 197 607 38 108 69 202 69 207 0 19 -19 12 -34
-11 -35 -54 -218 -507 -299 -738 -169 -485 -356 -1235 -433 -1730 -3 -19 -11
-73 -19 -120 -8 -47 -23 -152 -35 -235 -12 -82 -23 -162 -26 -178 -2 -15 -7
-51 -9 -80 -3 -28 -10 -90 -16 -137 -6 -47 -12 -105 -15 -130 -3 -39 -12 -132
-29 -300 -2 -25 -7 -83 -10 -130 -3 -47 -8 -107 -10 -135 -3 -27 -7 -93 -11
-145 -3 -52 -7 -124 -9 -160 -3 -36 -7 -141 -11 -235 -3 -93 -8 -183 -10 -200
-9 -64 -12 -1531 -4 -1720 9 -208 27 -526 36 -630 2 -33 7 -89 9 -124 2 -35 9
-107 14 -160 6 -53 13 -121 15 -151 5 -53 43 -369 51 -420 2 -14 9 -61 15
-105 6 -44 20 -132 30 -195 11 -63 22 -133 25 -155 2 -22 7 -51 10 -65 15 -74
25 -128 29 -150 2 -14 14 -70 25 -125 11 -55 23 -112 25 -128 3 -15 7 -35 10
-45 3 -9 7 -28 10 -42 23 -123 139 -572 201 -775 118 -387 262 -788 374 -1040
10 -22 47 -105 82 -185 142 -324 405 -814 615 -1147 697 -1102 1627 -2102
2844 -3054 102 -80 327 -253 500 -384 526 -398 583 -442 869 -664 1171 -908
1896 -1626 2405 -2385 180 -268 375 -614 475 -846 13 -30 34 -77 47 -105 108
-240 272 -744 318 -978 3 -12 11 -51 20 -87 8 -36 17 -78 20 -95 2 -16 14 -84
25 -150 11 -66 23 -142 26 -170 3 -27 13 -115 22 -195 13 -110 17 -238 17
-530 -1 -375 -2 -399 -39 -725 -3 -27 -10 -79 -16 -115 -6 -36 -13 -78 -16
-95 -2 -16 -13 -75 -24 -130 -11 -55 -23 -113 -25 -128 -3 -16 -21 -90 -40
-165 -19 -75 -42 -164 -50 -197 -41 -166 -173 -530 -287 -790 -33 -77 -60
-150 -59 -163 2 -25 -50 -107 -182 -287 -524 -716 -1165 -1328 -1896 -1810
-313 -206 -589 -363 -920 -524 -185 -89 -531 -241 -550 -241 -6 0 -18 -4 -28
-10 -45 -26 -373 -140 -587 -204 -258 -78 -407 -116 -650 -165 -126 -26 -142
-27 -157 -13 -16 13 -32 13 -160 -3 -198 -24 -613 -30 -773 -11 -114 14 -280
44 -355 66 -19 5 -38 10 -42 10 -5 0 -34 10 -65 21 -303 108 -504 220 -747
415 -111 89 -329 300 -399 386 l-38 46 94 124 c228 302 438 666 601 1048 32
74 64 149 71 165 53 121 255 698 255 729 0 4 -12 5 -27 2 -19 -4 -23 -3 -13 3
8 5 31 12 50 16 194 38 535 175 785 314 373 209 698 462 1076 840 599 600
1027 1185 1350 1848 140 288 301 716 335 893 3 14 9 41 15 60 12 43 48 223 55
270 28 210 34 291 34 455 1 211 -15 358 -55 541 -106 474 -342 902 -685 1244
-166 166 -391 337 -565 430 -44 24 -84 46 -90 50 -50 37 -505 209 -527 200 -2
-1 -16 3 -32 9 -26 11 -351 88 -406 97 -14 3 -61 11 -105 19 -116 21 -350 55
-420 61 -33 3 -65 7 -71 9 -7 2 -68 7 -135 11 -68 3 -164 9 -214 13 -120 8
-660 -4 -805 -18 -63 -6 -140 -13 -170 -16 -30 -2 -91 -9 -135 -15 -139 -19
-154 -21 -187 -25 -33 -4 -96 -14 -133 -21 -31 -6 -126 -22 -160 -28 -51 -8
-285 -56 -395 -81 -58 -13 -116 -26 -130 -29 -14 -2 -32 -7 -40 -10 -8 -3 -26
-8 -40 -10 -30 -6 -48 -10 -118 -30 -29 -8 -55 -15 -57 -15 -15 -2 -66 -14
-110 -26 -72 -20 -222 -63 -280 -80 -27 -9 -59 -17 -70 -20 -29 -6 -431 -129
-556 -171 -58 -19 -114 -36 -125 -39 -16 -3 -260 -88 -319 -110 -424 -163
-720 -306 -1110 -536 -160 -94 -457 -306 -635 -454 -118 -97 -376 -355 -456
-455 -346 -431 -463 -852 -379 -1356 21 -130 104 -364 187 -529 356 -707 927
-1339 1683 -1861 284 -197 736 -477 985 -612 36 -20 82 -46 102 -59 21 -13 39
-23 42 -23 2 0 86 -44 187 -98 443 -236 1010 -489 1286 -576 342 -107 679
-154 1008 -142 94 3 182 9 198 12 20 5 27 3 27 -9 0 -20 -133 -406 -205 -592
-217 -564 -441 -972 -713 -1295 -97 -116 -299 -314 -407 -400 -308 -245 -824
-501 -1365 -678 -141 -46 -308 -96 -356 -107 -10 -2 -80 -19 -154 -38 -191
-49 -298 -73 -430 -97 -63 -11 -126 -22 -140 -25 -67 -13 -145 -26 -245 -40
-60 -9 -123 -18 -140 -20 -145 -22 -535 -60 -715 -70 -58 -3 -143 -8 -190 -11
-186 -14 -848 -7 -1025 11 -22 2 -80 6 -130 10 -558 38 -1305 175 -1820 335
-55 17 -108 32 -118 35 -10 2 -91 29 -180 59 -874 297 -1613 675 -2227 1139
-760 575 -1249 1199 -1767 2257 -103 211 -269 572 -340 740 -24 58 -53 123
-62 145 -58 128 -175 434 -252 655 -88 254 -196 667 -243 930 -15 82 -19 111
-31 211 l-6 46 48 5 c222 25 493 -13 732 -103 113 -42 147 -47 190 -25 64 34
134 143 133 209 -1 47 -34 86 -123 148 -163 111 -385 155 -661 130 -223 -21
-397 -63 -588 -143 -508 -215 -921 -636 -1103 -1123 -25 -66 -67 -221 -67
-244 0 -21 47 -11 87 18 32 23 47 46 73 108 141 339 349 596 635 782 126 82
324 171 435 195 14 3 53 12 87 19 l62 14 -21 -28 c-19 -25 -20 -37 -15 -131 7
-110 21 -258 37 -373 6 -38 12 -89 15 -112 2 -23 11 -79 19 -125 8 -45 17 -99
21 -118 3 -19 8 -46 10 -60 10 -52 84 -369 108 -460 61 -228 194 -638 248
-765 5 -11 31 -77 58 -146 131 -331 339 -768 521 -1094 150 -266 140 -250 241
-413 208 -335 384 -570 622 -830 537 -587 1335 -1136 2207 -1518 l135 -59 127
-150 c833 -985 1915 -1921 2911 -2517 106 -63 123 -73 297 -170 301 -168 779
-388 1055 -485 275 -97 545 -182 635 -199 14 -3 59 -13 100 -24 176 -45 463
-96 685 -120 55 -6 116 -13 135 -15 130 -16 611 -22 750 -10 118 10 303 36
410 57 137 26 118 21 257 62 725 210 1261 681 1586 1393 26 56 47 105 47 108
0 3 9 24 19 48 60 129 171 521 205 722 29 172 29 172 45 310 23 200 32 369 32
640 0 157 -2 289 -6 294 -6 10 51 -6 70 -19 17 -13 256 -88 345 -109 251 -60
574 -69 825 -22 33 6 69 13 80 16 73 17 110 28 189 55 49 17 90 29 92 28 2 -2
6 -37 10 -78 3 -41 7 -77 9 -80 2 -3 6 -50 10 -105 4 -55 8 -102 10 -105 8
-14 19 -385 18 -613 -2 -226 -6 -317 -28 -577 -15 -184 -49 -411 -91 -620 -9
-41 -17 -84 -20 -95 -19 -97 -29 -138 -55 -228 -17 -56 -32 -111 -34 -121 -12
-55 -113 -338 -149 -420 -124 -278 -222 -460 -344 -636 -244 -355 -555 -649
-910 -861 -308 -184 -832 -413 -1162 -509 -36 -10 -96 -28 -135 -39 -100 -29
-423 -108 -520 -126 -73 -14 -314 -53 -355 -58 -382 -43 -400 -44 -705 -53
-191 -6 -605 7 -678 22 -12 2 -58 6 -102 10 -44 3 -107 9 -140 14 -33 5 -82
12 -110 16 -49 6 -242 38 -300 49 -16 3 -57 10 -90 16 -318 55 -852 217 -1216
368 -248 102 -240 98 -464 211 -255 129 -373 198 -610 356 -227 151 -366 256
-586 447 -1000 862 -1441 1224 -2054 1683 -1059 794 -2159 1454 -3235 1941
-91 41 -183 82 -205 92 -203 93 -678 283 -960 384 -333 120 -723 244 -1130
362 -481 139 -1142 358 -1535 508 -222 85 -523 208 -676 275 -165 73 -651 311
-679 332 -5 4 -41 24 -80 45 -203 109 -526 317 -720 463 -423 318 -782 694
-1037 1087 -127 196 -271 468 -347 658 -17 42 -44 110 -60 150 -53 131 -178
543 -195 637 -2 14 -9 45 -16 69 -6 24 -15 67 -20 95 -19 109 -109 467 -151
601 -21 68 -120 367 -128 388 -64 165 -182 462 -200 502 -11 22 -31 69 -45
105 -15 36 -36 84 -46 106 -11 23 -39 86 -63 140 -25 55 -75 164 -112 244 -37
80 -80 172 -95 205 -15 33 -72 150 -125 260 -54 110 -130 268 -170 350 -40 83
-105 218 -145 300 -166 343 -388 818 -470 1005 l-33 75 49 195 c26 107 50 204
51 215 2 11 10 47 18 80 14 59 32 147 41 195 3 14 14 75 25 135 12 61 22 119
24 130 7 42 35 222 40 260 3 22 7 54 10 70 3 17 7 48 9 70 3 22 10 83 16 135
19 175 40 433 48 600 9 200 8 738 -1 910 -7 129 -33 458 -42 520 -3 19 -7 60
-11 90 -3 30 -7 69 -9 85 -6 49 -25 176 -35 235 -5 30 -12 71 -14 90 -3 19
-12 71 -20 115 -8 44 -17 91 -20 105 -3 20 -78 427 -100 540 -2 14 -16 90 -30
170 -15 80 -31 168 -37 195 -5 28 -11 61 -14 75 -2 14 -11 59 -19 100 -8 41
-17 89 -19 105 -3 17 -12 68 -21 115 -8 47 -17 99 -20 115 -3 17 -12 65 -20
109 -9 43 -18 92 -21 110 -9 58 -23 141 -43 251 -20 106 -32 173 -36 205 -2 8
-5 29 -9 45 -3 17 -9 46 -11 65 -3 19 -8 46 -11 60 -3 14 -17 93 -31 175 -14
83 -27 161 -29 175 -20 112 -75 442 -79 470 -3 19 -14 87 -25 150 -11 63 -22
131 -25 150 -3 19 -7 49 -10 65 -7 37 -44 267 -50 315 -4 30 -24 159 -42 275
-2 17 -6 44 -9 60 -2 17 -15 104 -29 195 -13 91 -27 188 -30 215 -4 28 -9 61
-11 75 -7 41 -63 450 -70 510 -3 30 -8 62 -10 70 -2 8 -6 46 -10 83 -3 37 -8
76 -10 85 -1 9 -6 44 -10 77 -4 33 -9 74 -11 90 -25 206 -54 462 -59 510 -3
33 -7 73 -10 90 -2 16 -7 62 -10 100 -3 39 -7 79 -9 90 -4 18 -12 105 -21 215
-2 25 -8 90 -14 145 -5 55 -13 136 -16 180 -3 44 -8 105 -11 135 -10 130 -43
594 -48 695 -31 590 -31 593 -30 1310 0 517 11 931 29 1075 3 19 7 69 10 110
9 143 16 216 41 445 25 221 27 234 65 318 21 48 39 89 39 91 0 17 257 541 356
727 460 862 1019 1652 1721 2427 190 210 154 194 328 139 55 -17 172 -67 260
-112 343 -172 682 -434 1084 -839 163 -163 200 -196 223 -196 67 0 261 243
349 437 22 48 44 97 49 108 16 36 68 208 88 295 22 95 26 116 42 245 6 50 13
108 16 130 8 71 4 507 -7 625 -21 230 -21 230 -100 357 -78 126 -250 369 -333
473 -29 36 -55 70 -59 76 -15 26 690 522 1173 825 338 213 725 442 970 576 30
16 109 59 175 95 66 37 176 96 245 133 150 79 858 433 985 492 50 23 140 65
200 93 136 64 455 210 460 210 2 0 33 14 68 30 36 17 67 30 70 30 3 0 43 17
89 39 45 21 128 57 183 80 55 23 109 46 120 51 28 14 282 120 458 191 118 49
293 106 437 144 16 5 36 10 180 51 109 31 613 161 650 168 14 3 84 19 155 35
72 17 168 39 215 50 98 23 537 110 685 136 55 10 109 19 120 21 21 4 60 11
110 19 17 3 68 11 115 19 47 8 103 17 125 20 22 3 83 12 135 20 93 15 436 60
535 70 189 20 533 54 545 54 8 0 98 7 200 15 102 8 218 15 259 16 41 1 78 4
81 6 3 2 121 7 261 11 139 3 256 9 259 11 10 10 969 -7 1220 -21z m10460 -370
c229 -31 300 -44 450 -81 123 -31 363 -111 435 -144 11 -6 58 -26 105 -46 152
-65 350 -175 520 -288 602 -401 1183 -1021 1924 -2052 44 -60 218 -303 387
-540 766 -1068 1090 -1472 1599 -1989 884 -899 1862 -1567 2951 -2016 68 -28
133 -55 144 -60 79 -35 524 -188 715 -245 47 -13 99 -29 115 -34 115 -37 552
-139 755 -177 289 -54 710 -114 914 -130 39 -3 107 -10 151 -15 44 -6 98 -12
120 -15 22 -3 81 -12 130 -20 50 -8 104 -17 120 -20 160 -26 639 -151 705
-184 8 -5 74 -30 145 -56 375 -138 774 -358 1114 -614 502 -379 945 -875 1303
-1459 144 -234 297 -526 399 -759 28 -64 57 -131 65 -149 33 -74 114 -284 114
-296 0 -7 4 -17 9 -23 10 -11 146 -413 155 -459 2 -11 13 -49 25 -83 69 -211
230 -951 255 -1172 3 -19 9 -64 15 -100 10 -64 20 -145 26 -205 2 -16 10 -91
19 -165 8 -74 17 -173 21 -220 3 -47 8 -119 12 -160 12 -164 19 -388 21 -660
l2 -285 -29 35 c-16 19 -83 103 -148 185 -311 389 -682 760 -988 985 -86 63
-231 160 -240 160 -2 0 -26 13 -52 28 -77 45 -160 75 -188 68 -30 -8 -45 -55
-34 -106 32 -144 32 -656 -1 -930 -6 -47 -13 -107 -16 -135 -3 -27 -14 -102
-25 -165 -12 -63 -23 -128 -25 -145 -34 -217 -210 -837 -294 -1030 -12 -27
-29 -70 -37 -95 -50 -149 -231 -527 -390 -815 -89 -163 -253 -485 -253 -498 0
-3 -15 -38 -34 -79 -80 -170 -247 -628 -271 -738 -1 -8 -9 -35 -16 -60 -15
-55 -11 -37 -49 -200 -36 -151 -36 -154 -44 -201 -50 -319 -71 -586 -61 -769
7 -133 15 -244 20 -270 2 -10 7 -40 11 -67 9 -67 9 -66 38 -180 51 -199 114
-346 210 -491 173 -263 397 -420 705 -498 53 -13 100 -26 105 -27 13 -4 -101
-93 -224 -175 -218 -144 -464 -271 -735 -379 -135 -54 -465 -167 -516 -177
-64 -12 -212 -56 -225 -67 -24 -19 -19 -64 30 -264 10 -42 29 -104 37 -125 5
-14 11 -34 13 -45 6 -29 76 -214 126 -330 253 -600 709 -1133 1220 -1426 46
-27 80 -50 75 -51 -6 0 -14 -2 -20 -3 -13 -2 -125 -14 -190 -20 -283 -27 -818
-26 -1150 0 -101 9 -344 36 -440 49 -22 4 -58 9 -80 11 -154 20 -601 110 -747
150 -24 7 -58 15 -83 20 -11 3 -76 21 -145 41 -69 19 -154 44 -190 54 -36 11
-130 41 -210 69 -1371 469 -2557 1245 -3521 2302 -262 288 -544 650 -764 984
-112 169 -285 448 -285 459 0 2 -22 41 -48 87 -151 263 -326 630 -461 969
-128 318 -311 885 -356 1099 -2 9 -19 81 -38 161 -30 125 -42 180 -72 330 -9
46 -13 64 -44 199 -17 73 -33 143 -35 155 -3 17 -33 136 -162 659 -2 9 -6 25
-8 35 -22 89 -162 579 -226 792 -40 129 -73 240 -74 245 -5 22 -130 406 -161
495 -19 52 -56 160 -84 240 -106 309 -319 876 -382 1017 -10 24 -19 47 -19 52
0 5 -12 35 -26 67 -15 33 -43 100 -64 150 -39 95 -39 91 -55 422 -2 29 -6 79
-9 110 -3 31 -8 86 -11 122 -3 36 -7 88 -10 115 -3 28 -7 82 -10 120 -6 76
-42 423 -50 494 -3 24 -8 64 -11 90 -10 84 -11 96 -18 146 -4 28 -9 66 -12 85
-6 47 -43 299 -48 330 -44 275 -102 574 -158 825 -22 99 -46 207 -54 240 -7
33 -38 152 -70 265 -31 113 -60 219 -64 235 -4 17 -13 44 -18 60 -6 17 -25 77
-42 135 -75 244 -237 698 -291 817 -10 24 -19 47 -19 51 0 9 -131 313 -186
430 -19 40 -34 75 -34 78 0 9 -261 527 -327 648 -114 210 -124 227 -236 416
-627 1054 -1405 2042 -2432 3088 -270 275 -711 698 -909 872 -501 437 -1218
946 -1883 1335 -57 33 -103 64 -103 68 0 12 187 212 311 332 459 443 979 781
1509 982 81 30 293 101 323 107 12 3 55 14 95 25 40 10 75 19 77 19 3 0 18 3
33 6 181 40 342 63 488 72 60 4 111 8 113 10 11 10 459 -6 561 -20z m-24885
-1671 c99 -8 253 -32 359 -56 50 -11 102 -22 116 -25 85 -16 362 -106 447
-145 23 -10 45 -19 48 -19 3 0 63 -26 133 -58 766 -353 1527 -1045 2092 -1903
96 -146 98 -150 109 -231 34 -262 36 -581 6 -823 -33 -267 -86 -458 -185 -660
-55 -115 -148 -253 -202 -303 l-24 -22 -185 183 c-576 571 -1112 909 -1551
978 -108 16 -324 7 -408 -19 -200 -60 -510 -282 -781 -558 -349 -358 -619
-804 -840 -1387 -80 -210 -126 -359 -205 -657 -28 -109 -103 -445 -119 -535
-2 -11 -11 -63 -19 -115 -9 -52 -18 -106 -21 -120 -24 -144 -80 -598 -90 -735
-3 -44 -8 -96 -10 -115 -3 -19 -7 -73 -10 -120 -3 -47 -7 -114 -10 -150 -33
-431 -38 -1435 -10 -1980 3 -52 10 -187 15 -300 5 -113 12 -232 15 -265 3 -33
7 -100 11 -150 12 -203 23 -345 29 -375 2 -14 7 -72 10 -130 3 -58 8 -118 10
-135 2 -16 9 -79 15 -140 17 -180 18 -190 45 -440 13 -132 27 -253 29 -270 3
-16 8 -61 12 -100 3 -38 8 -78 10 -88 2 -10 6 -48 10 -85 3 -36 7 -73 9 -82 2
-8 6 -44 10 -80 4 -36 8 -72 10 -80 3 -14 11 -80 19 -145 3 -16 14 -100 25
-185 11 -85 23 -175 26 -199 3 -23 7 -55 10 -70 2 -14 7 -46 10 -71 3 -25 7
-56 10 -70 3 -14 7 -41 9 -60 3 -19 11 -80 20 -135 8 -55 17 -121 20 -147 3
-26 8 -58 10 -70 6 -25 13 -75 21 -141 3 -23 7 -53 10 -67 9 -46 70 -430 79
-495 3 -22 12 -78 20 -125 8 -47 24 -148 36 -225 12 -77 24 -149 26 -160 3
-16 26 -145 78 -450 14 -84 47 -270 61 -350 9 -49 18 -101 20 -115 2 -14 8
-50 14 -80 5 -30 12 -68 15 -85 3 -16 15 -82 26 -145 12 -63 25 -137 30 -165
4 -27 17 -99 29 -160 11 -60 23 -127 26 -149 4 -21 9 -48 11 -60 6 -29 32
-164 38 -201 3 -16 12 -64 19 -105 27 -139 96 -515 102 -550 3 -19 12 -66 20
-105 7 -38 21 -110 30 -160 9 -49 20 -110 25 -135 5 -25 11 -63 14 -85 3 -22
8 -51 11 -65 6 -27 22 -134 29 -190 3 -19 12 -84 20 -145 8 -60 17 -146 21
-190 3 -44 8 -91 10 -105 3 -14 7 -65 10 -115 3 -49 8 -117 11 -150 3 -33 8
-217 11 -410 5 -312 -4 -619 -23 -820 -3 -33 -6 -67 -6 -75 0 -8 -6 -76 -15
-150 -8 -74 -16 -157 -19 -185 -6 -67 -53 -388 -66 -450 -5 -27 -12 -63 -14
-80 -3 -16 -9 -52 -15 -80 -6 -27 -13 -61 -15 -75 -163 -853 -452 -1701 -869
-2545 -223 -452 -424 -800 -706 -1225 -416 -625 -842 -1145 -1388 -1691 -503
-502 -919 -851 -1521 -1273 -164 -115 -503 -329 -705 -446 -288 -166 -630
-341 -880 -451 -49 -22 -97 -44 -106 -49 -27 -14 -349 -147 -414 -170 -33 -12
-73 -28 -90 -35 -77 -34 -445 -153 -445 -143 0 5 13 56 29 112 73 250 133 538
156 741 4 33 9 71 11 85 2 14 7 113 10 220 6 173 0 309 -22 476 -12 97 -61
298 -105 429 -327 976 -1300 1834 -3504 3090 -323 184 -459 260 -945 527
-1341 738 -2307 1691 -2878 2838 -121 242 -142 291 -245 560 -47 122 -146 435
-161 510 -3 14 -16 70 -30 125 -13 55 -26 114 -29 130 -3 17 -12 64 -21 105
-20 100 -34 182 -42 254 -3 33 -8 67 -9 75 -2 9 -6 45 -10 81 -3 36 -8 79 -11
95 -10 59 -16 571 -8 620 13 73 7 103 -24 119 -40 20 -62 7 -129 -76 -235
-288 -426 -644 -546 -1013 -48 -146 -97 -364 -97 -427 0 -46 -17 -32 -34 27
-26 89 -86 308 -92 335 -3 14 -6 30 -8 35 -1 6 -8 28 -14 50 -6 22 -13 51 -16
65 -3 14 -12 52 -20 85 -21 90 -64 286 -70 320 -3 17 -14 77 -25 135 -11 58
-22 119 -25 135 -3 17 -8 41 -11 55 -3 14 -7 41 -9 60 -3 19 -11 78 -20 130
-8 52 -17 115 -20 140 -3 25 -9 83 -15 130 -6 47 -13 112 -16 145 -3 33 -7 78
-10 100 -41 350 -45 921 -10 1410 9 119 41 402 50 441 3 12 8 50 11 85 3 35 8
67 10 70 2 4 6 27 9 50 8 72 57 307 115 559 38 164 121 447 191 651 33 97 149
398 174 453 7 17 26 60 40 96 87 211 293 607 453 870 344 566 704 1023 1187
1505 558 559 1164 1021 1855 1415 146 83 521 276 660 339 243 111 689 337 902
458 69 40 105 55 101 44 -5 -14 -55 -137 -133 -321 -211 -498 -256 -624 -290
-811 -73 -409 74 -763 370 -890 47 -20 71 -24 160 -23 103 0 158 12 229 48 34
18 57 7 43 -20 -5 -11 -25 -66 -45 -124 -30 -91 -40 -121 -53 -175 -9 -41 -34
-195 -34 -217 0 -25 4 -27 56 -34 92 -11 252 1 318 25 100 35 162 71 235 131
l69 59 -41 -72 c-39 -70 -167 -322 -167 -331 0 -3 -13 -33 -29 -68 -103 -226
-163 -497 -163 -733 1 -209 35 -363 118 -529 181 -359 512 -566 844 -526 270
33 519 196 829 543 841 944 1423 2071 1706 3307 15 63 29 126 32 140 7 39 32
163 37 185 2 11 9 56 16 100 7 44 14 89 16 100 3 11 7 40 9 65 3 25 10 74 15
110 5 36 14 112 20 170 5 58 12 115 15 128 4 23 3 23 -63 17 -37 -4 -78 -8
-92 -10 -14 -2 -52 -7 -84 -11 l-60 -6 100 75 c330 250 614 588 796 950 62
125 75 163 85 263 12 124 -48 234 -148 271 -61 23 -175 16 -262 -17 -120 -45
-197 -109 -336 -278 -133 -162 -198 -230 -267 -276 -42 -27 -145 -68 -153 -60
-3 3 36 46 86 97 161 164 254 286 323 426 75 150 108 307 89 416 -4 22 -10 54
-12 70 -8 48 -43 140 -72 189 -126 216 -356 291 -570 185 -116 -57 -270 -220
-358 -380 -33 -61 -54 -79 -36 -32 23 62 33 296 16 413 l-7 55 156 175 c691
776 1402 1699 2688 3490 366 510 406 558 788 935 509 504 942 854 1418 1147
275 169 552 310 800 405 116 45 362 129 403 137 12 3 58 14 102 26 179 46 391
82 585 99 97 9 430 6 555 -4z m934 -3276 c-792 -871 -1370 -1705 -1897 -2739
-57 -113 -102 -196 -99 -185 5 17 16 71 31 155 42 225 202 786 271 945 7 17
27 68 45 115 17 47 41 105 52 130 225 497 437 818 748 1131 161 162 273 254
448 370 175 116 280 156 411 158 l63 1 -73 -81z m22576 -6545 c55 -3 102 -7
105 -9 3 -2 33 -6 65 -10 50 -6 175 -30 260 -51 11 -3 31 -7 44 -10 47 -10
247 -77 341 -114 301 -121 579 -285 848 -499 563 -449 997 -1065 1236 -1751
39 -110 94 -296 111 -370 2 -8 11 -46 20 -84 9 -38 29 -146 45 -240 28 -161
36 -213 45 -296 2 -19 7 -53 10 -75 6 -42 7 -50 24 -205 30 -265 37 -679 16
-910 -8 -91 -17 -175 -20 -187 -3 -12 -7 -41 -10 -65 -10 -73 -46 -239 -71
-323 -14 -44 -27 -90 -29 -101 -3 -12 -14 -41 -25 -65 -11 -24 -20 -49 -20
-56 0 -15 -68 -166 -116 -258 -56 -107 -173 -279 -263 -387 -252 -300 -627
-558 -1061 -727 -74 -29 -142 -56 -150 -61 -16 -8 -221 -72 -275 -85 -46 -12
-44 -12 -145 -39 -113 -30 -333 -77 -338 -71 -2 2 29 20 69 41 600 300 1108
835 1374 1444 25 58 50 114 55 125 18 39 99 291 114 355 22 96 37 170 42 210
3 19 7 42 10 50 3 8 8 42 11 75 2 33 8 76 12 95 15 71 13 461 -3 620 -9 85
-18 167 -21 183 -3 15 -7 37 -9 50 -2 12 -7 33 -10 47 -3 14 -8 36 -10 50 -22
134 -117 425 -198 610 -299 681 -852 1259 -1528 1595 -58 29 -135 65 -170 80
-36 15 -78 33 -95 40 -120 54 -427 143 -585 171 -14 2 -38 7 -55 11 -35 7 -19
5 -214 28 -126 14 -204 17 -425 12 -149 -3 -282 -8 -296 -10 -14 -3 -47 -8
-75 -11 -27 -3 -61 -8 -75 -11 -14 -2 -36 -7 -50 -10 -14 -2 -36 -6 -50 -9
-45 -7 -233 -54 -320 -80 -238 -70 -491 -184 -714 -323 -65 -40 -121 -72 -123
-69 -5 5 84 174 145 276 434 718 1075 1198 1817 1359 50 11 113 22 140 26 28
3 77 10 110 14 33 5 98 9 145 10 46 1 87 5 90 7 2 3 36 3 75 0 38 -3 115 -9
170 -12z m-570 -1284 c39 -6 84 -12 100 -15 258 -34 579 -127 835 -242 760
-341 1359 -963 1658 -1718 74 -187 148 -458 166 -600 2 -22 9 -69 15 -105 36
-209 34 -558 -4 -810 -27 -171 -101 -457 -150 -575 -7 -16 -27 -66 -45 -110
-46 -115 -150 -312 -225 -427 -278 -424 -618 -741 -1053 -981 -56 -31 -104
-57 -106 -57 -2 0 -44 -19 -93 -41 -103 -48 -247 -105 -318 -124 -249 -69
-255 -70 -380 -50 -16 2 -48 7 -70 10 -96 14 -230 44 -376 86 l-106 31 -188
188 c-104 104 -187 191 -185 193 3 3 34 0 70 -4 177 -24 498 -15 710 21 127
22 366 86 445 120 11 4 70 30 130 56 588 256 1069 789 1260 1394 137 432 148
881 35 1331 -39 155 -158 459 -179 459 -4 0 -15 -14 -25 -32 -97 -163 -331
-269 -528 -238 -198 30 -338 163 -370 350 -24 140 32 303 141 410 69 68 197
136 272 146 27 4 49 10 49 14 0 10 -137 132 -235 210 -213 168 -500 323 -763
411 -85 28 -166 53 -180 55 -15 3 -40 9 -57 14 -16 5 -86 19 -155 31 -106 19
-168 23 -400 25 -151 2 -293 -1 -315 -6 -22 -4 -87 -16 -145 -25 -150 -25
-155 -27 -100 -55 183 -93 338 -257 430 -454 58 -124 82 -228 88 -386 8 -248
-51 -450 -196 -670 -109 -164 -290 -323 -474 -416 -194 -98 -331 -134 -544
-141 -182 -7 -280 5 -421 52 -170 57 -308 139 -417 250 -46 47 -61 73 -100
170 l-46 115 0 163 c0 359 70 806 182 1156 33 105 36 108 188 225 342 263 759
456 1170 541 8 2 35 8 60 14 78 17 190 33 365 51 100 11 486 4 580 -10z m-720
-9456 c90 -5 428 -40 475 -49 14 -3 45 -7 70 -10 25 -4 68 -10 96 -16 28 -5
64 -12 80 -15 96 -16 442 -95 494 -113 14 -5 54 -17 90 -27 261 -71 618 -259
855 -448 176 -142 395 -383 520 -576 131 -201 248 -456 301 -660 87 -329 109
-573 80 -868 -15 -149 -23 -206 -57 -372 -24 -120 -96 -365 -106 -363 -5 1
-57 12 -114 25 -88 19 -135 22 -304 23 -203 0 -218 -1 -385 -30 -132 -22 -290
-69 -510 -151 -63 -23 -199 -93 -303 -155 -223 -135 -377 -290 -471 -476 -38
-76 -83 -217 -92 -288 -3 -22 -7 -51 -10 -65 -6 -27 -5 -216 1 -264 30 -237
158 -455 339 -578 155 -106 368 -144 584 -105 39 7 72 11 72 9 0 -14 -236
-269 -420 -452 -394 -395 -727 -650 -1109 -852 -228 -121 -560 -243 -741 -273
-19 -3 -42 -8 -50 -10 -172 -49 -609 -65 -845 -31 -66 9 -163 26 -215 37 -52
11 -106 22 -120 25 -109 22 -405 121 -544 183 -23 10 -97 42 -166 71 -151 64
-693 328 -880 429 -205 112 -383 213 -398 226 -11 10 12 22 115 60 696 256
1077 464 1252 683 184 229 177 502 -19 780 -196 279 -528 472 -930 542 -117
20 -494 26 -605 9 -100 -15 -107 -17 -185 -34 -375 -84 -715 -243 -975 -456
-73 -60 -236 -223 -296 -298 l-36 -43 -98 108 c-413 457 -732 984 -828 1371
-24 96 -31 131 -43 223 -9 76 -6 272 6 340 6 36 14 81 16 100 10 64 75 244
126 345 232 464 776 952 1527 1370 220 122 604 298 844 387 122 45 579 195
615 203 9 2 37 10 62 18 92 31 475 145 546 162 11 3 60 16 109 30 50 14 119
32 155 41 36 9 72 18 80 20 65 16 351 83 375 87 17 3 62 12 100 20 177 38 388
75 530 92 17 2 82 11 145 19 375 49 776 63 1195 40z m2595 -3589 c124 -8 257
-32 266 -46 3 -5 -11 -53 -31 -106 -171 -458 -463 -986 -778 -1406 -196 -262
-191 -257 -344 -297 -185 -48 -340 -47 -470 4 -249 97 -412 354 -416 656 -2
138 8 204 53 340 60 187 206 363 414 501 244 162 645 311 926 344 88 11 253
21 280 19 14 -2 59 -6 100 -9z m-5970 -684 c310 -60 517 -161 711 -348 93 -90
181 -210 219 -298 87 -202 41 -387 -136 -555 -169 -160 -497 -334 -949 -505
-203 -77 -277 -105 -337 -128 l-66 -26 -164 100 c-496 305 -819 544 -1143 845
l-136 126 47 56 c247 297 543 498 939 637 110 39 248 75 335 89 76 12 167 26
200 30 86 11 378 -3 480 -23z m1796 -5278 c133 -158 440 -466 539 -540 90 -67
194 -130 230 -139 13 -3 27 -13 29 -22 8 -25 27 -485 21 -518 -2 -16 -7 -105
-10 -199 -5 -178 -7 -196 -31 -390 -18 -149 -22 -177 -35 -240 -5 -27 -12 -66
-15 -85 -23 -152 -130 -516 -206 -699 -56 -134 -180 -374 -188 -364 -4 4 -14
35 -23 68 -32 129 -97 273 -183 405 -82 126 -190 248 -327 370 -609 539 -1469
962 -2392 1176 -44 10 -83 17 -87 16 -5 -1 -8 2 -8 6 0 5 55 23 123 41 582
158 1214 427 1737 739 222 133 571 370 685 466 17 14 33 25 36 26 3 0 50 -53
105 -117z m-8161 -773 c146 -55 510 -174 670 -220 77 -22 300 -81 325 -86 14
-3 68 -16 120 -29 244 -62 610 -134 920 -180 96 -14 186 -28 199 -30 14 -2 52
-7 85 -10 34 -3 97 -10 141 -15 44 -5 114 -12 155 -15 41 -3 93 -8 115 -10 40
-5 178 -14 285 -20 87 -4 839 -4 900 0 30 2 96 7 145 10 98 6 375 33 415 40
14 2 52 7 85 10 72 7 66 6 285 44 201 34 226 39 260 47 70 16 106 13 248 -15
153 -31 456 -106 542 -134 25 -8 92 -30 150 -47 329 -103 747 -285 1069 -467
152 -86 461 -292 581 -388 419 -335 586 -566 681 -942 33 -133 40 -111 -80
-263 -341 -433 -850 -728 -1451 -840 -103 -19 -125 -22 -245 -35 -33 -4 -73
-8 -90 -11 -16 -2 -124 -6 -240 -9 -209 -4 -437 5 -590 25 -44 5 -105 12 -135
15 -30 3 -66 8 -80 11 -14 3 -43 8 -65 11 -34 4 -166 27 -270 48 -16 3 -68 15
-115 26 -47 11 -96 23 -110 25 -14 3 -50 12 -80 20 -30 9 -86 25 -125 35 -85
22 -343 107 -440 144 -38 15 -81 30 -95 35 -165 52 -682 293 -980 456 -172 95
-491 291 -695 428 -669 449 -1331 1011 -1950 1656 -249 259 -648 710 -628 710
4 0 44 -14 88 -30z"/>
<path d="M39715 34104 c-201 -28 -341 -67 -480 -134 -295 -141 -521 -383 -625
-669 -111 -304 -55 -578 137 -673 63 -31 75 -33 178 -35 70 -2 127 3 155 11
25 7 68 16 95 19 28 3 88 11 134 17 194 25 722 29 818 5 13 -3 49 -8 80 -11
91 -8 328 -51 418 -76 22 -6 45 -12 50 -13 91 -19 348 -107 485 -166 73 -32
311 -150 380 -190 95 -54 301 -193 401 -270 188 -144 420 -365 526 -501 11
-16 23 -28 26 -28 8 0 -47 202 -83 305 -34 97 -35 102 -74 188 -14 32 -26 60
-26 62 0 14 -123 260 -197 393 -423 766 -983 1354 -1533 1611 -232 108 -414
151 -660 156 -96 2 -188 1 -205 -1z"/>
<path d="M25270 32578 c-226 -19 -389 -47 -574 -100 -38 -11 -76 -21 -85 -23
-18 -4 -216 -72 -246 -85 -11 -5 -69 -30 -130 -55 -680 -288 -1280 -829 -1742
-1572 -173 -278 -349 -627 -493 -978 -17 -44 -36 -89 -40 -100 -35 -84 -225
-648 -235 -696 -2 -9 -8 -34 -15 -55 -24 -83 -96 -355 -105 -399 -5 -22 -32
-134 -42 -175 -3 -14 -7 -29 -9 -35 -1 -5 -14 -68 -29 -140 -14 -71 -28 -139
-31 -150 -2 -11 -7 -36 -10 -55 -3 -19 -15 -82 -26 -140 -10 -58 -21 -121 -24
-140 -2 -19 -15 -97 -27 -172 -13 -76 -20 -138 -16 -138 5 0 12 15 17 33 12
41 54 149 80 207 11 25 46 104 77 175 205 463 519 997 839 1422 521 692 1150
1249 1801 1593 55 29 105 56 110 60 59 41 456 204 645 264 165 52 223 69 280
81 8 2 53 13 100 24 47 11 99 23 115 26 104 20 193 35 237 40 28 3 54 8 57 9
3 2 42 7 86 11 44 4 94 9 110 11 134 15 417 25 565 19 277 -12 315 -11 343 4
40 21 61 75 63 160 2 90 -19 167 -76 285 -169 345 -529 621 -955 730 -183 47
-435 69 -615 54z"/>
<path d="M40967 29094 c-1 -1 -73 -4 -159 -8 -86 -3 -162 -8 -170 -10 -7 -3
-40 -7 -73 -10 -51 -4 -121 -15 -265 -41 -138 -25 -494 -133 -605 -184 -22
-10 -94 -42 -159 -71 -402 -181 -851 -513 -1155 -854 -184 -206 -380 -471
-362 -489 10 -10 52 9 63 28 27 46 203 251 303 354 426 439 987 767 1575 922
192 50 362 82 505 94 39 3 88 8 110 11 53 6 394 6 467 0 157 -13 284 -32 433
-66 50 -11 101 -23 115 -26 28 -6 38 -9 200 -60 495 -156 991 -449 1468 -866
74 -65 138 -118 142 -118 42 0 119 61 145 114 27 53 19 94 -27 150 -269 323
-587 572 -973 761 -460 226 -896 335 -1443 363 -74 4 -134 6 -135 6z"/>
<path d="M33360 27281 c-122 -38 -215 -120 -300 -260 -27 -46 -50 -88 -50 -94
0 -5 -6 -23 -14 -40 -27 -61 -61 -192 -71 -276 -17 -128 -20 -194 -19 -376 1
-207 16 -379 49 -540 8 -38 16 -81 19 -95 4 -24 42 -175 70 -275 26 -96 79
-220 121 -285 69 -109 150 -160 250 -160 96 0 157 41 200 133 13 27 25 45 28
40 2 -4 14 -40 25 -79 37 -123 96 -184 179 -184 165 0 337 249 371 535 16 140
4 510 -23 695 -36 243 -72 469 -90 565 -18 95 -28 133 -55 211 -86 250 -214
398 -408 471 -86 32 -205 38 -282 14z"/>
<path d="M24959 27196 c-2 -2 -46 -7 -97 -10 -51 -4 -101 -9 -111 -11 -10 -2
-42 -6 -72 -9 -30 -3 -65 -8 -79 -11 -14 -3 -41 -8 -60 -11 -60 -11 -63 -12
-140 -29 -923 -208 -1794 -859 -2273 -1700 -55 -95 -66 -125 -49 -125 22 0 57
41 124 142 226 343 543 663 903 910 237 163 556 324 820 415 184 63 470 132
610 148 28 3 61 7 74 10 145 28 628 28 757 0 11 -2 45 -7 75 -11 30 -3 97 -15
149 -25 52 -11 106 -22 120 -25 14 -3 43 -10 65 -16 22 -6 45 -12 52 -14 33
-6 204 -60 271 -84 417 -153 820 -376 1197 -664 105 -80 131 -89 175 -59 49
33 90 105 92 159 1 32 -8 44 -88 126 -311 314 -722 563 -1199 723 -115 38
-388 105 -495 121 -19 3 -62 9 -95 14 -33 5 -85 12 -115 15 -30 4 -68 8 -85
11 -36 6 -520 15 -526 10z"/>
<path d="M25347 25714 c-1 -1 -56 -5 -122 -9 -602 -36 -1185 -217 -1725 -535
-107 -63 -335 -223 -454 -318 -142 -113 -392 -355 -516 -497 -373 -429 -665
-954 -836 -1505 -25 -80 -47 -153 -50 -162 -2 -10 -6 -28 -10 -40 -3 -13 -7
-34 -10 -48 -3 -14 -13 -61 -24 -105 -20 -89 -35 -166 -51 -270 -6 -38 -13
-81 -15 -95 -28 -179 -41 -595 -25 -838 7 -100 14 -192 16 -204 2 -13 6 -48 9
-78 4 -30 13 -95 22 -145 8 -49 17 -102 20 -117 24 -146 89 -385 161 -593 213
-617 565 -1174 1029 -1626 210 -204 495 -425 703 -546 31 -18 53 -33 49 -33
-11 0 -98 30 -143 50 -22 10 -80 34 -130 55 -236 98 -609 295 -833 441 -62 41
-121 74 -132 74 -27 0 -71 -56 -62 -80 4 -11 57 -59 117 -108 499 -399 1081
-690 1735 -867 86 -23 322 -76 396 -89 72 -13 232 -38 259 -41 17 -2 48 -6 70
-9 283 -36 864 -43 1165 -13 96 10 186 20 200 22 102 16 221 35 250 39 62 8
312 63 471 104 232 60 640 196 784 262 11 5 78 34 149 65 249 107 492 229 796
398 86 47 315 196 420 272 146 105 303 241 427 367 87 90 113 123 118 151 21
108 -48 72 -524 -272 -330 -238 -552 -375 -871 -535 -225 -112 -393 -186 -620
-273 -87 -33 -294 -102 -297 -100 -1 2 14 12 35 22 208 109 517 325 707 494
44 39 132 114 195 167 284 238 539 536 701 819 67 115 155 293 189 383 17 42
35 86 40 97 20 42 92 295 115 405 13 63 29 133 35 155 6 22 13 48 15 58 3 9 7
27 10 40 3 12 12 51 21 87 9 36 18 76 20 90 2 14 7 35 9 48 11 46 45 261 50
307 24 258 27 343 22 622 -5 307 -19 462 -61 688 -9 44 -17 92 -20 107 -34
199 -168 617 -274 853 -179 399 -404 751 -689 1075 -446 508 -1029 902 -1656
1119 -136 47 -295 95 -357 107 -14 3 -38 9 -55 14 -16 5 -48 12 -70 16 -22 3
-58 9 -80 14 -39 9 -235 38 -305 46 -19 2 -129 6 -245 9 -115 3 -222 7 -238 9
-15 1 -28 2 -30 0z m393 -128 c89 -6 183 -16 213 -22 16 -3 38 -7 50 -9 88
-12 133 -19 212 -36 50 -11 109 -24 132 -29 130 -28 438 -131 562 -187 180
-82 318 -151 425 -215 571 -336 1038 -799 1391 -1378 67 -110 204 -373 240
-463 14 -34 30 -71 35 -82 45 -100 121 -312 151 -425 42 -158 67 -256 73 -290
3 -19 9 -46 12 -60 16 -73 45 -252 60 -380 25 -210 24 -823 -1 -848 -3 -3 -6
15 -6 39 -3 101 -47 343 -90 494 -23 81 -61 201 -69 220 -5 11 -26 63 -46 115
-74 193 -231 482 -361 661 -203 283 -469 550 -758 761 -152 111 -401 254 -590
339 -128 57 -415 157 -502 175 -12 2 -69 15 -125 28 -410 96 -941 100 -1363
10 -643 -137 -1210 -457 -1628 -919 -309 -342 -517 -707 -656 -1150 -54 -174
-86 -338 -117 -600 -19 -154 -3 -579 26 -740 5 -27 11 -63 14 -80 23 -142 45
-229 113 -433 155 -470 412 -882 773 -1242 414 -415 899 -697 1465 -854 130
-36 152 -41 210 -51 17 -3 53 -10 80 -15 179 -36 343 -48 605 -44 146 2 276 5
290 7 14 2 52 7 85 11 64 8 64 8 200 32 110 19 387 94 474 129 36 14 67 25 70
25 22 -1 -353 -196 -479 -249 -92 -40 -323 -123 -378 -137 -9 -2 -60 -15 -112
-28 -52 -14 -120 -28 -150 -31 -30 -3 -82 -10 -115 -15 -321 -49 -1032 -46
-1335 4 -24 4 -55 9 -152 22 -211 28 -406 85 -649 189 -459 196 -849 463
-1214 830 -387 388 -672 821 -888 1345 -42 103 -131 364 -151 446 -8 32 -24
95 -34 139 -11 44 -23 94 -25 110 -3 17 -12 62 -20 100 -19 88 -45 281 -55
405 -21 253 -8 794 23 928 3 12 8 44 11 70 7 62 50 275 76 371 11 42 24 94 29
116 16 69 90 285 141 415 303 766 848 1435 1533 1881 426 278 912 469 1410
554 121 20 199 29 435 49 49 4 362 -1 450 -8z m550 -1641 c277 -19 574 -87
905 -209 102 -38 395 -185 510 -257 720 -449 1221 -1139 1409 -1939 14 -58 27
-124 30 -148 3 -24 7 -46 10 -50 2 -4 6 -34 10 -67 3 -33 10 -97 16 -142 14
-126 11 -423 -6 -573 -26 -228 -57 -365 -139 -615 -148 -449 -443 -890 -815
-1218 -358 -315 -769 -531 -1230 -646 -299 -75 -487 -95 -825 -87 -143 3 -282
10 -310 15 -27 5 -84 14 -125 20 -366 56 -782 211 -1128 420 -450 271 -855
682 -1106 1121 -51 88 -176 347 -176 363 0 7 -4 17 -10 23 -5 5 -32 77 -59
159 -139 421 -186 816 -146 1228 16 163 49 349 85 472 11 39 22 79 25 89 7 29
26 88 40 121 6 17 27 68 45 115 50 130 172 361 265 500 308 462 733 824 1229
1047 285 128 609 216 921 249 204 21 349 24 575 9z"/>
<path d="M26037 23374 c-1 -1 -51 -4 -112 -7 -88 -5 -290 -29 -340 -42 -5 -1
-29 -6 -52 -10 -46 -8 -55 -20 -23 -30 45 -14 181 -114 251 -184 256 -257 345
-611 248 -988 -27 -107 -124 -300 -203 -404 -189 -250 -496 -434 -816 -490
-108 -19 -336 -17 -443 4 -295 59 -548 228 -694 466 l-51 82 -15 -53 c-27 -94
-45 -171 -61 -258 -9 -47 -18 -98 -22 -115 -4 -16 -8 -138 -9 -270 -3 -253 5
-341 55 -567 24 -106 98 -334 137 -423 261 -581 705 -1028 1288 -1293 92 -41
311 -121 351 -128 6 -1 36 -9 65 -17 30 -8 72 -18 94 -23 22 -4 42 -8 45 -9 3
0 28 -5 55 -10 28 -4 57 -9 65 -11 143 -25 544 -25 715 0 318 46 630 154 893
310 319 190 615 482 803 792 174 288 273 577 319 931 11 84 14 393 5 493 -15
167 -64 387 -126 567 -39 112 -113 283 -123 283 -3 0 -12 -12 -20 -27 -66
-128 -248 -237 -417 -250 -227 -17 -415 100 -473 296 -49 167 14 372 152 491
59 51 165 105 237 121 30 7 55 15 55 19 0 10 -75 79 -180 166 -259 216 -587
389 -913 483 -102 29 -230 60 -277 66 -159 22 -214 27 -328 33 -74 4 -134 6
-135 6z"/>
<path d="M45582 20426 c-15 -5 -44 -22 -64 -38 -40 -31 -57 -71 -82 -195 -25
-121 -59 -167 -156 -210 -30 -14 -62 -27 -70 -29 -8 -2 -67 -17 -130 -33 -259
-65 -324 -113 -321 -241 2 -86 41 -177 120 -283 32 -43 706 -694 823 -795 98
-84 227 -127 314 -103 88 24 144 82 152 159 4 43 -1 61 -37 135 -44 92 -49
122 -26 167 20 38 47 53 77 41 32 -12 67 -52 281 -312 233 -283 265 -309 385
-309 65 0 101 20 126 68 42 84 20 194 -86 432 -188 420 -420 793 -713 1145
-197 237 -324 353 -428 392 -49 18 -125 22 -165 9z"/>
<path d="M19280 19218 c-212 -38 -561 -409 -872 -928 -238 -396 -358 -702
-358 -909 0 -91 54 -192 120 -226 36 -19 109 -21 140 -5 14 7 51 37 82 66 68
62 108 75 147 47 70 -52 73 -150 11 -338 -23 -71 -45 -134 -48 -139 -13 -23
-264 -787 -273 -831 -17 -82 -12 -201 11 -252 47 -106 117 -162 209 -168 49
-3 65 0 108 25 60 34 86 67 280 350 326 477 377 556 420 648 43 89 47 103 51
194 6 118 -9 167 -69 227 -86 86 -211 112 -293 62 l-38 -24 7 34 c39 180 150
325 431 561 139 118 239 228 279 312 42 87 49 124 49 241 -1 107 -21 183 -66
251 -72 107 -174 135 -293 80 -32 -14 -59 -26 -60 -26 -2 0 17 30 42 68 64 94
99 173 129 288 42 162 26 325 -35 371 -30 22 -66 29 -111 21z"/>
</g>
</svg>
